<?xml version="1.0" encoding="utf-8"?>
<!-- Generator: Adobe Illustrator 19.0.0, SVG Export Plug-In . SVG Version: 6.00 Build 0)  -->
<svg version="1.1" id="图层_1" xmlns="http://www.w3.org/2000/svg" xmlns:xlink="http://www.w3.org/1999/xlink" x="0px" y="0px"
	 viewBox="0 0 100 100" style="enable-background:new 0 0 100 100;" xml:space="preserve">
<style type="text/css">
	.st0{fill:#010101;}
</style>
<g id="XMLID_2_">
	<rect id="XMLID_7_" x="M51.8 41L55.5 41L55.5 44.7L55.5 41z" class="st0" width="3.7" height="18.1"/>
	<path id="XMLID_6_" class="st0" d="M22.8,41H3c-1.7,0-3,1.4-3,3v15.1h3.6V45.2c0-0.7,0.5-1.2,1.2-1.2h6.3v15.2h3.6V44H21c0.7,0,1.2,0.5,1.2,1.2v13.9h3.5V44C25.8,42.4,24.4,41,22.8,41zM29.6,44v12.1c0,1.7,1.3,3,3,3H48v-2.9H34.3c-0.7,0-1.2-0.5-1.2-1.2v-3.4h14.1v-3H33.1v-3.4c0-0.7,0.5-1.2,1.2-1.2H48V41H32.6C30.9,41,29.6,42.4,29.6,44zM75.3,41H59.4v2.9h13.1L59.9,55.1c-2,1.7-0.7,4,1,4H77v-2.9H63.6L76.2,45C78.3,43.1,77,41,75.3,41zM96.5,41v13.9c0,0.7-0.5,1.2-1.2,1.2l0,0H85.1l0,0c-0.7,0-1.2-0.5-1.2-1.2V41h-3.5v15.1c0,1.7,1.3,3,3,3H97c1.7,0,3-1.3,3-3V41H96.5zM51.8 41L55.5 41L55.5 44.7L55.5 41z"/>
</g>
</svg>
