<?xml version="1.0" encoding="utf-8"?>
<!-- Generator: Adobe Illustrator 19.0.0, SVG Export Plug-In . SVG Version: 6.00 Build 0)  -->
<svg version="1.1" id="图层_1" xmlns="http://www.w3.org/2000/svg" xmlns:xlink="http://www.w3.org/1999/xlink" x="0px" y="0px"
     viewBox="0 0 100 100" style="enable-background:new 0 0 100 100;" xml:space="preserve">
<style type="text/css">
    .st0{fill:#1EB9EC;}
</style>
<path id="XMLID_" class="st0" d="M0,66.5h1.9l0,0V37.9l15.4,28.6h1.9l15.2-28.6h0.3v28.6h1.9V34.8h-3L18.2,64L3,34.8H0V66.5zM41.4,34.8l12.9,14.1l1.6-1.4L43.6,34.8M73.1,34.8L60.2,48.9l-1.6-1.4l12.2-12.7H73.1zM41.4,66.5l12.9-14.1l1.6,1.4L43.6,66.5M73.1,66.5L60.2,52.4l-1.6,1.4l12.2,12.7H73.1zM88.7,66.5c-4.1,0-6.9-1.1-8.5-3.3c-1.4-2-2-4.8-2-9.2c0-8,1-12.4,3.3-15.1c2.5-2.8,6.7-4,14-4c0.2,0,0.5,0,1.8,0l0,0l0.1,1.3l-1.7,0c-7.8,0.2-15.1,0.4-15.7,11.7l0,0.6l0.7-0.1c2.7-0.3,6.4-0.7,8.8-0.7c6.5,0,10.5,1.5,10.5,9.2c0,3.7-1,6.2-3,7.6C95.2,65.8,92.6,66.5,88.7,66.5z M80,50.3c-0.1,1.8-0.1,3-0.1,4.3c0,5.2,1,10.5,8.7,10.5c7,0,9.7-2.3,9.7-8.3c0-3.2-0.8-5.2-2.6-6.4c-1.5-1-3.6-1.4-7.2-1.4c-1.6,0-4.3,0.2-8.1,0.8L80,49.8L80,50.3z"/>
</svg>
