<?xml version="1.0" encoding="utf-8"?>
<!-- Generator: Adobe Illustrator 19.0.0, SVG Export Plug-In . SVG Version: 6.00 Build 0)  -->
<svg version="1.1" id="Logo" xmlns="http://www.w3.org/2000/svg" xmlns:xlink="http://www.w3.org/1999/xlink" x="0px" y="0px"
	 viewBox="14 269.9 469.6 85" style="enable-background:new 14 269.9 469.6 85;" xml:space="preserve">
<g>
	<rect x="257.2" y="269.9" width="17.5" height="85"/>
	<path d="M120.9,269.9H28.2c-7.8,0-14.2,6.4-14.2,14.2V355h16.7v-65.5c0-3.1,2.5-5.7,5.7-5.7h29.8V355h16.7v-71.2h29.8c3.1,0,5.7,2.5,5.7,5.7V355H135v-70.9C135,276.3,128.7,269.9,120.9,269.9z"/>
	<path d="M152.8,284.1v56.7c0,7.8,6.3,14.2,14.2,14.2h72.3v-13.8h-64.1c-3.1,0-5.7-2.5-5.7-5.7v-16.1h66.3v-13.9h-66.3v-16.1
		c0-3.1,2.5-5.7,5.7-5.7h64.1v-13.8H167C159.1,269.9,152.8,276.3,152.8,284.1z"/>
	<path d="M367.6,269.9H293v13.8h61.7l-59.2,52.6c-9.5,8.1-3.3,18.6,4.6,18.6h75.4v-13.8h-62.9l59.3-52.6
		C381.5,279.9,375.8,269.9,367.6,269.9z"/>
	<path d="M467,269.9v65.5c0,3.1-2.5,5.7-5.7,5.7l0,0h-47.6l0,0c-3.1,0-5.7-2.5-5.7-5.7v-65.5h-16.6v70.9c0,7.8,6.3,14.2,14.2,14.2
		h63.8c7.8,0,14.2-6.3,14.2-14.2v-70.9H467z"/>
</g>
</svg>
